<?xml version="1.0" encoding="UTF-8" standalone="no"?>
<!-- Created with Inkscape (http://www.inkscape.org/) -->

<svg
   width="228.44386mm"
   height="186.0721mm"
   viewBox="0 0 228.44386 186.0721"
   version="1.1"
   id="svg1"
   xml:space="preserve"
   xmlns:xlink="http://www.w3.org/1999/xlink"
   xmlns="http://www.w3.org/2000/svg"
   xmlns:svg="http://www.w3.org/2000/svg"
   xmlns:rdf="http://www.w3.org/1999/02/22-rdf-syntax-ns#"
   xmlns:cc="http://creativecommons.org/ns#"
   xmlns:dc="http://purl.org/dc/elements/1.1/"><title
     id="title1">Stichting Dakterras Art Productions Logo</title><defs
     id="defs1"><color-profile
       name="SMPTE-RP-431-2-2007-DCI-P3"
       xlink:href="file:///System/Library/ColorSync/Profiles/DCI(P3)%20RGB.icc"
       id="color-profile1" /></defs><g
     id="layer2"
     style="display:inline"
     transform="translate(-34.278036,-10.935391)"><path
       d="m -110.38885,142.18346 h 12.750799 q 3.5052,0 7.0612,0.9144 3.556,0.9144 6.4008,3.048 2.8448,2.0828 4.6228,5.5372 1.778,3.4036 1.778,8.4836 0,4.7244 -1.778,8.128 -1.778,3.4036 -4.6228,5.588 -2.8448,2.1844 -6.4008,3.2512 -3.556,1.016 -7.0612,1.016 h -12.750799 z m 11.734799,30.3784 q 2.4892,0 4.9784,-0.5588 2.4892,-0.6096 4.4704,-1.9812 2.032,-1.4224 3.302,-3.81 1.27,-2.3876 1.27,-6.0452 0,-3.8608 -1.27,-6.2992 -1.27,-2.4384 -3.302,-3.81 -1.9812,-1.3716 -4.4704,-1.8796 -2.4892,-0.508 -4.9784,-0.508 h -5.333999 v 24.892 z m 34.036013,-21.9456 h 5.9436 l 11.887199,27.5336 h -6.908799 l -2.4384,-5.9944 h -11.3284 l -2.3876,5.9944 h -6.7056 z m 6.604,16.6624 -3.81,-9.4996 -3.7084,9.4996 z m 14.986035,-16.6624 h 6.1976 v 11.3792 h 0.1016 l 10.0584,-11.3792 h 8.1788 l -12.3444,12.8016 13.0048,14.732 h -8.3312 l -10.5664,-12.9032 h -0.1016 v 12.9032 h -6.1976 z m 33.2740128,5.2324 H -17.78039 v -5.2324 H 4.4700096 v 5.2324 h -8.0263999 v 22.3012 h -6.1975999 z m 18.2879536,-5.2324 H 27.533163 v 5.1308 h -12.8016 v 5.7912 h 12.1412 v 4.8768 h -12.1412 v 6.4516 h 13.462 v 5.2832 H 8.5339634 Z m 25.8063656,0 h 10.0076 q 2.1336,0 4.0132,0.4572 1.8796,0.4064 3.302,1.4224 1.4732,0.9652 2.286,2.54 0.8636,1.5748 0.8636,3.8608 0,2.9972 -1.524,4.9784 -1.524,1.9304 -3.81,2.6416 l 6.5532,11.6332 h -7.3152 l -5.4864,-10.7188 h -2.6924 v 10.7188 h -6.1976 z m 9.3472,12.0904 q 0.8636,0 1.7272,-0.1524 0.9144,-0.1524 1.5748,-0.5588 0.7112,-0.4064 1.1176,-1.1176 0.4572,-0.762 0.4572,-1.9304 0,-0.9652 -0.4064,-1.5748 -0.3556,-0.6604 -1.016,-1.016 -0.6096,-0.4064 -1.4224,-0.5588 -0.8128,-0.1524 -1.6256,-0.1524 h -3.556 v 7.0612 z m 17.525969,-12.0904 h 10.0076 q 2.1336,0 4.0132,0.4572 1.8796,0.4064 3.302,1.4224 1.4732,0.9652 2.286,2.54 0.8636,1.5748 0.8636,3.8608 0,2.9972 -1.524,4.9784 -1.524,1.9304 -3.81,2.6416 l 6.5532,11.6332 h -7.3152 l -5.4864,-10.7188 h -2.6924 v 10.7188 h -6.1976 z m 9.3472,12.0904 q 0.8636,0 1.7272,-0.1524 0.9144,-0.1524 1.5748,-0.5588 0.7112,-0.4064 1.1176,-1.1176 0.4572,-0.762 0.4572,-1.9304 0,-0.9652 -0.4064,-1.5748 -0.3556,-0.6604 -1.016,-1.016 -0.6096,-0.4064 -1.4224,-0.5588 -0.8128,-0.1524 -1.6256,-0.1524 h -3.556 v 7.0612 z m 24.841138,-12.0904 h 5.943604 l 11.8872,27.5336 h -6.9088 l -2.4384,-5.9944 H 92.557036 l -2.3876,5.9944 h -6.7056 z m 6.604004,16.6624 -3.810004,-9.4996 -3.7084,9.4996 z m 29.66724,-9.1948 q -0.8636,-1.2192 -2.4384,-2.0828 -1.524,-0.9144 -3.302,-0.9144 -0.762,0 -1.524,0.1524 -0.762,0.1524 -1.3716,0.508 -0.5588,0.3048 -0.9144,0.8636 -0.3556,0.5588 -0.3556,1.3208 0,0.762 0.3556,1.3208 0.3556,0.508 1.0668,0.9144 0.762,0.4064 1.778,0.7112 1.0668,0.3048 2.4384,0.6604 1.4224,0.3556 2.8956,0.9144 1.524,0.5588 2.7432,1.524 1.2192,0.9144 1.9812,2.3368 0.8128,1.3716 0.8128,3.3528 0,2.4892 -0.9144,4.2672 -0.8636,1.7272 -2.3876,2.8448 -1.524,1.0668 -3.5052,1.5748 -1.9304,0.508 -4.064,0.508 -3.048,0 -5.9436,-1.1176 -2.8956,-1.1684 -4.7752,-3.3528 l 4.318,-4.3688 q 1.016,1.4732 2.7432,2.4384 1.778,0.9652 3.9116,0.9652 0.7112,0 1.4224,-0.1524 0.762,-0.1524 1.3716,-0.508 0.6096,-0.3556 0.9652,-0.9144 0.4064,-0.6096 0.4064,-1.524 0,-0.8636 -0.4064,-1.4224 -0.3556,-0.6096 -1.1176,-1.016 -0.7112,-0.4572 -1.8288,-0.762 -1.1176,-0.3556 -2.5908,-0.7112 -1.4732,-0.3556 -2.8448,-0.8636 -1.3716,-0.5588 -2.4892,-1.4224 -1.0668,-0.9144 -1.7272,-2.2352 -0.6604,-1.3208 -0.6604,-3.2512 0,-2.286 0.8636,-3.9116 0.9144,-1.6764 2.3876,-2.7432 1.4732,-1.0668 3.302,-1.5748 1.8796,-0.508 3.81,-0.508 2.8448,0 5.4864,1.016 2.6924,1.016 4.318,3.1496 z m 21.69162,-15.9004 h 5.5372 l 15.494,35.9664 h -7.3152 l -3.3528,-8.2296 h -15.5956 l -3.2512,8.2296 h -7.1628 z m 8.128,22.2504 -5.5372,-14.6304 -5.6388,14.6304 z m 16.35758,-13.8176 h 10.0076 q 2.1336,0 4.0132,0.4572 1.8796,0.4064 3.302,1.4224 1.4732,0.9652 2.286,2.54 0.8636,1.5748 0.8636,3.8608 0,2.9972 -1.524,4.9784 -1.524,1.9304 -3.81,2.6416 l 6.5532,11.6332 h -7.3152 l -5.4864,-10.7188 h -2.6924 v 10.7188 h -6.1976 z m 9.3472,12.0904 q 0.8636,0 1.7272,-0.1524 0.9144,-0.1524 1.5748,-0.5588 0.7112,-0.4064 1.1176,-1.1176 0.4572,-0.762 0.4572,-1.9304 0,-0.9652 -0.4064,-1.5748 -0.3556,-0.6604 -1.016,-1.016 -0.6096,-0.4064 -1.4224,-0.5588 -0.8128,-0.1524 -1.6256,-0.1524 h -3.556 v 7.0612 z m 21.28521,-6.858 h -8.0264 v -5.2324 h 22.2504 v 5.2324 h -8.0264 v 22.3012 h -6.1976 z"
       id="text7"
       style="font-weight:600;font-size:50.8px;line-height:1.25;font-family:'Avenir Next';-inkscape-font-specification:'Avenir Next, Semi-Bold';font-variant-ligatures:none;font-variant-caps:small-caps;text-align:center;text-anchor:middle;white-space:pre;inline-size:487.988;stroke-width:0.264583"
       transform="matrix(0.68582083,0,0,0.98735106,109.98504,20.408828)"
       aria-label="DakterrasArt" /></g><g
     id="layer3"
     style="display:inline;opacity:1;fill:none;fill-opacity:1;stroke:#fc0000;stroke-opacity:1"
     transform="translate(-34.278036,-10.935391)"><path
       style="display:inline;opacity:1;fill:#000000;fill-opacity:1;stroke:none;stroke-width:0.1;stroke-dasharray:none;stroke-opacity:1"
       d="m 147.4678,28.082873 -47.29814,81.297787 c -3.939857,10.95951 9.12363,18.12241 16.52982,9.16102 l 37.85687,-64.122146 c 2.30292,-3.230684 6.08969,-4.743485 10.13377,-4.745965 4.40447,-0.0027 8.2365,1.396286 11.13437,4.782024 l 20.65014,32.019661 h -27.55268 c -4.62289,0.04094 -5.61689,2.884793 -6.80829,4.857912 l -30.32419,51.415254 c -1.98229,2.88494 -5.18749,4.95645 -9.21101,5.18814 l -58.387408,-0.0639 C 55.164999,146.72558 53.71296,138.60067 56.578051,132.88014 L 124.35185,16.329894 c 4.40773,-7.2449394 13.67173,-5.943109 17.91207,-3.286025 4.24033,2.657084 7.85808,8.295008 5.20388,15.039004 z"
       id="path11" /></g><g
     id="layer4"
     style="display:inline"
     transform="translate(-34.278036,-10.935391)"><path
       style="display:inline;opacity:1;fill:#f06f39;fill-opacity:1;stroke:none;stroke-width:0.1;stroke-dasharray:none;stroke-opacity:1"
       d="m 148.49785,138.12661 23.42186,-39.175096 c 1.52419,-1.786233 3.17469,-2.757138 6.60461,-3.059927 l 19.51071,0.0318 c 2.05487,0.2369 4.08424,0.844885 5.37065,2.669431 l 24.03198,38.622222 c 2.95714,5.82917 -0.0934,10.20384 -5.60079,10.6425 l -35.75332,-0.16288 c -0.63809,-0.15366 -0.34688,-0.85288 -0.10305,-1.21637 l 9.55477,-16.14851 c 2.11191,-4.65861 0.2186,-7.70999 -2.37132,-9.46766 -2.58992,-1.75767 -7.48424,-1.90493 -9.98577,2.60653 l -12.28425,21.05171 c -1.56675,2.10239 -3.97094,3.37967 -6.71138,3.44299 l -12.26679,-0.0979 c -6.96293,-0.0556 -4.76554,-7.48479 -3.41791,-9.73881 z"
       id="path12" /></g><metadata
     id="metadata1"><rdf:RDF><cc:Work
         rdf:about=""><dc:title>Stichting Dakterras Art Productions Logo</dc:title><dc:creator><cc:Agent><dc:title>Stefano Bocconi</dc:title></cc:Agent></dc:creator><cc:license
           rdf:resource="http://creativecommons.org/licenses/by-nc-nd/4.0/" /></cc:Work><cc:License
         rdf:about="http://creativecommons.org/licenses/by-nc-nd/4.0/"><cc:permits
           rdf:resource="http://creativecommons.org/ns#Reproduction" /><cc:permits
           rdf:resource="http://creativecommons.org/ns#Distribution" /><cc:requires
           rdf:resource="http://creativecommons.org/ns#Notice" /><cc:requires
           rdf:resource="http://creativecommons.org/ns#Attribution" /><cc:prohibits
           rdf:resource="http://creativecommons.org/ns#CommercialUse" /></cc:License></rdf:RDF></metadata></svg>
